<?xml version="1.0" encoding="UTF-8"?>
<svg version="1.1" xmlns="http://www.w3.org/2000/svg" width="1000" height="1000">
<path d="M0 0 C2.25439874 -0.00346142 4.50879578 -0.00822923 6.76318932 -0.01418173 C12.9256457 -0.02665472 19.08796191 -0.02053817 25.25041866 -0.01122308 C31.22409574 -0.00511775 37.19774992 -0.01313793 43.17142171 -0.02066517 C56.13543608 -0.03642396 69.09940597 -0.03510859 82.06342453 -0.02642844 C93.40872251 -0.01886978 104.75400422 -0.01691725 116.0993042 -0.02049637 C116.85304158 -0.02072552 117.60677895 -0.02095468 118.38335685 -0.02119078 C121.44333176 -0.02212486 124.50330667 -0.02308006 127.56328156 -0.02407007 C156.24463696 -0.03323878 184.92596411 -0.02493984 213.60731515 -0.00877938 C239.066513 0.00545652 264.52566583 0.00418259 289.98486328 -0.01016235 C318.61510979 -0.02624026 347.24533134 -0.03258844 375.87558174 -0.02332556 C378.92985153 -0.02236347 381.98412132 -0.02142494 385.03839111 -0.02049637 C386.16637808 -0.02014052 386.16637808 -0.02014052 387.31715266 -0.01977748 C398.65290926 -0.01637085 409.98864777 -0.02034509 421.32440186 -0.02793503 C434.2188641 -0.03652577 447.11327507 -0.03434071 460.00773096 -0.0180928 C466.58373248 -0.01007901 473.15966162 -0.00710005 479.73566437 -0.01704025 C485.76089153 -0.02601001 491.78594325 -0.02101658 497.8111546 -0.0051076 C499.98525039 -0.00176947 502.15936114 -0.00343191 504.33344722 -0.01073496 C533.69254886 -0.10175479 533.69254886 -0.10175479 546.81884766 7.00595093 C547.48013672 7.35222534 548.14142578 7.69849976 548.82275391 8.05526733 C565.61619796 17.16530313 576.73045178 31.68462925 582.44384766 49.81845093 C584.32543904 56.47547362 584.71497607 63.09780399 584.68910217 69.96736145 C584.6899566 70.80638711 584.69081102 71.64541276 584.69169134 72.50986344 C584.69333194 75.30732808 584.6878481 78.10473209 584.68237305 80.90219116 C584.68209084 82.91305032 584.68224956 84.92390958 584.68281555 86.93476868 C584.68310223 92.38460262 584.6772264 97.83441452 584.67024159 103.28424335 C584.66398651 108.98306844 584.66340255 114.68189405 584.66221619 120.38072205 C584.65910923 131.16819744 584.65090439 141.95566268 584.6408667 152.7431336 C584.62759483 167.32312249 584.62220052 181.90311416 584.61636448 196.48310757 C584.60696409 219.44906295 584.58704091 242.41499693 584.56884766 265.38095093 C530.11884766 265.38095093 475.66884766 265.38095093 419.56884766 265.38095093 C419.56884766 224.13095093 419.56884766 182.88095093 419.56884766 140.38095093 C396.99319978 139.48157148 396.99319978 139.48157148 376.85009766 147.38876343 C376.26228516 148.0874353 375.67447266 148.78610718 375.06884766 149.50595093 C374.46041016 150.18915405 373.85197266 150.87235718 373.22509766 151.57626343 C368.23321927 160.02949145 368.13836399 168.91659 368.18789673 178.49984741 C368.18443466 179.91203643 368.17966643 181.32422274 368.173715 182.73640347 C368.16125062 186.59391655 368.16735442 190.45120552 368.17667365 194.30871916 C368.18348261 198.47784117 368.17297378 202.64692558 368.16473389 206.81604004 C368.15141403 214.9742304 368.1542665 223.13233782 368.16297181 231.2905314 C368.16975483 237.922556 368.1706624 244.5545574 368.16740036 251.18658447 C368.16694066 252.13151589 368.16648096 253.0764473 368.16600733 254.05001301 C368.16504813 255.96979436 368.16407549 257.88957571 368.16308956 259.80935705 C368.15454078 277.79907995 368.16436176 295.78875694 368.18049066 313.7784723 C368.19389337 329.20490743 368.19156513 344.63127483 368.17773438 360.05770874 C368.16166951 377.98431672 368.15536471 395.91088449 368.16457117 413.83749866 C368.16552678 415.7501049 368.1664699 417.66271114 368.16740036 419.57531738 C368.1680946 420.98677045 368.1680946 420.98677045 368.16880286 422.42673773 C368.17139003 429.04860078 368.16702765 435.67043827 368.1599617 442.29229736 C368.15153644 450.36527664 368.15384841 458.43816843 368.16980393 466.51113772 C368.17767284 470.62783671 368.18080186 474.74438999 368.17085648 478.8610878 C368.16188036 482.63370932 368.16689007 486.40605084 368.18278913 490.17864716 C368.1876979 492.18094966 368.17796658 494.18327178 368.16761744 496.18555355 C368.22952477 505.72154236 368.94997651 514.07736897 375.56884766 521.38095093 C375.56884766 522.04095093 375.56884766 522.70095093 375.56884766 523.38095093 C376.08447266 523.62845093 376.60009766 523.87595093 377.13134766 524.13095093 C379.75291242 525.47534312 382.2645197 526.95902614 384.78759766 528.47860718 C394.56510566 533.43168689 412.93306181 531.15213073 419.56884766 531.38095093 C419.56884766 486.50095093 419.56884766 441.62095093 419.56884766 395.38095093 C474.01884766 395.38095093 528.46884766 395.38095093 584.56884766 395.38095093 C584.68975676 447.9808887 584.68975676 447.9808887 584.71533203 470.05673218 C584.73311894 485.28739459 584.75400646 500.51800713 584.79516602 515.74862671 C584.8251306 526.84199337 584.84443742 537.9353195 584.85111314 549.0287255 C584.85501344 554.8989329 584.86413727 560.76902436 584.88603783 566.63919449 C584.90651455 572.17295164 584.91265895 577.70654593 584.9081707 583.24033737 C584.90899092 585.26306292 584.91488948 587.28579434 584.92646408 589.30848694 C585.03621583 609.49071255 582.36464504 626.99676688 569.56884766 643.38095093 C569.05837891 644.06802124 568.54791016 644.75509155 568.02197266 645.46298218 C557.25066391 658.98044142 540.39017177 666.36017286 523.56884766 668.38095093 C516.10556185 668.90585685 508.6147156 668.78701817 501.13769531 668.76190186 C498.88329657 668.76536328 496.62889953 668.77013108 494.374506 668.77608359 C488.21204962 668.78855657 482.0497334 668.78244003 475.88727665 668.77312493 C469.91359957 668.76701961 463.9399454 668.77503979 457.96627361 668.78256703 C445.00225923 668.79832582 432.03828934 668.79701044 419.07427078 668.78833029 C407.72897281 668.78077163 396.38369109 668.7788191 385.03839111 668.78239822 C384.28465374 668.78262738 383.53091636 668.78285653 382.75433846 668.78309263 C379.69436355 668.78402671 376.63438865 668.78498192 373.57441375 668.78597193 C344.89305835 668.79514064 316.2117312 668.7868417 287.53038016 668.77068123 C262.07118231 668.75644534 236.61202949 668.75771926 211.15283203 668.77206421 C182.52258552 668.78814211 153.89236397 668.79449029 125.26211357 668.78522742 C122.20784379 668.78426532 119.15357399 668.7833268 116.0993042 668.78239822 C115.34731289 668.78216099 114.59532158 668.78192376 113.82054265 668.78167934 C102.48478605 668.7782727 91.14904754 668.78224695 79.81329346 668.78983688 C66.91883121 668.79842763 54.02442024 668.79624256 41.12996435 668.77999465 C34.55396283 668.77198086 27.97803369 668.7690019 21.40203094 668.77894211 C15.37680378 668.78791187 9.35175206 668.78291844 3.32654071 668.76700945 C1.15244492 668.76367133 -1.02166582 668.76533377 -3.19575191 668.77263682 C-32.55485355 668.86365665 -32.55485355 668.86365665 -45.68115234 661.75595093 C-46.34244141 661.40967651 -47.00373047 661.0634021 -47.68505859 660.70663452 C-64.47850265 651.59659873 -75.59275647 637.07727261 -81.30615234 618.94345093 C-83.26025331 612.02989118 -83.57736232 605.1624854 -83.56258011 598.03163815 C-83.56565906 596.64303626 -83.56565906 596.64303626 -83.56880021 595.22638181 C-83.57446203 592.11927634 -83.57301396 589.01221531 -83.57159424 585.90510559 C-83.57417834 583.65690038 -83.57719163 581.40869564 -83.58059764 579.16049153 C-83.58866557 572.97807398 -83.5904571 566.79566804 -83.59119511 560.61324584 C-83.59285595 554.63157169 -83.59917426 548.64990289 -83.60527352 542.66823202 C-83.62132208 526.64495801 -83.6272355 510.62168497 -83.63202227 494.59840437 C-83.63435936 487.01607373 -83.63796213 479.43374385 -83.64171764 471.8514138 C-83.65455213 445.88851737 -83.66527141 419.92562136 -83.66872025 393.96272182 C-83.66894188 392.33338038 -83.66916366 390.70403894 -83.6693856 389.0746975 C-83.66960624 387.44145662 -83.66982672 385.80821574 -83.67004704 384.17497486 C-83.67048959 380.89850008 -83.67093671 377.62202531 -83.67138672 374.34555054 C-83.67149611 373.53317726 -83.6716055 372.72080398 -83.67171821 371.88381333 C-83.67534831 345.54645094 -83.69126713 319.20911609 -83.71457708 292.87176425 C-83.73918547 265.01633833 -83.75289355 237.16092814 -83.75408816 209.30549103 C-83.75425961 206.24634015 -83.75447504 203.18718928 -83.7547226 200.12803841 C-83.75477836 199.37480767 -83.75483413 198.62157693 -83.75489159 197.84552102 C-83.75604115 185.73572183 -83.76705505 173.62595095 -83.78160965 161.51616131 C-83.79599191 149.33898813 -83.79920188 137.16185116 -83.79116967 124.98467182 C-83.7871123 118.39061749 -83.78819101 111.79663926 -83.80222702 105.20259476 C-83.81496792 99.16168872 -83.81376654 93.12094914 -83.80163631 87.08004332 C-83.79967967 84.89899343 -83.80275619 82.71793174 -83.81148067 80.53689843 C-83.88863195 59.93965047 -81.51727937 42.13688314 -68.43115234 25.38095093 C-67.92068359 24.69388062 -67.41021484 24.0068103 -66.88427734 23.29891968 C-50.13361232 2.27766432 -24.85754099 -0.08349982 0 0 Z M92.19384766 147.50595093 C91.40236328 148.20977905 90.61087891 148.91360718 89.79541016 149.63876343 C84.23709882 156.48426265 82.98137537 163.22578578 83.11474609 171.85775757 C83.11416199 172.86368958 83.11357788 173.86962158 83.11297607 174.90603638 C83.11574291 178.20142201 83.14676912 181.4958813 83.17822266 184.79110718 C83.18569001 187.08752448 83.1913806 189.38394818 83.19537354 191.68037415 C83.2105908 197.70237046 83.24983922 203.72397626 83.29418945 209.74581909 C83.34245104 216.98290691 83.36069474 224.22012586 83.38400269 231.4573288 C83.42269219 242.43214049 83.49937434 253.40609657 83.56884766 264.38095093 C100.39884766 264.38095093 117.22884766 264.38095093 134.56884766 264.38095093 C134.56884766 223.46095093 134.56884766 182.54095093 134.56884766 140.38095093 C111.95996547 138.62105822 111.95996547 138.62105822 92.19384766 147.50595093 Z M83.56884766 396.38095093 C83.46572266 415.14970093 83.36259766 433.91845093 83.25634766 453.25595093 C83.21082764 459.16871948 83.16530762 465.08148804 83.1184082 471.1734314 C83.10167968 476.50217475 83.10167968 476.50217475 83.09162903 481.83093262 C83.0839821 484.19304115 83.066461 486.5551309 83.04096985 488.91711426 C83.00417298 492.50810326 82.99932404 496.09790608 83.0012207 499.6890564 C82.98323016 500.73043699 82.96523962 501.77181759 82.94670391 502.84475517 C83.0032929 510.89151053 85.00704214 517.52985812 90.55881786 523.53254509 C103.32160619 535.62420447 115.73459302 531.38095093 134.56884766 531.38095093 C134.56884766 499.37095093 134.56884766 467.36095093 134.56884766 434.38095093 C155.35884766 434.38095093 176.14884766 434.38095093 197.56884766 434.38095093 C197.56884766 421.84095093 197.56884766 409.30095093 197.56884766 396.38095093 C159.94884766 396.38095093 122.32884766 396.38095093 83.56884766 396.38095093 Z " fill="#00ADE8" transform="translate(249.43115234375,165.61904907226563)"/>
<path d="M0 0 C2.77065271 0.00252471 5.54129788 0.00050077 8.31195068 -0.00132751 C14.25074289 -0.00289178 20.18943532 0.00642804 26.12820244 0.023386 C34.71438223 0.04788745 43.30051435 0.0555926 51.88672531 0.05934998 C65.82115794 0.06589709 79.75553753 0.08581074 93.68994141 0.11425781 C107.21663144 0.14184362 120.74330701 0.163055 134.27001953 0.17578125 C135.52312689 0.17696351 135.52312689 0.17696351 136.80154955 0.17816965 C140.99301396 0.18208509 145.18447848 0.18587613 149.37594306 0.18960536 C184.08473225 0.22064702 218.79345984 0.27343506 253.50219727 0.34057617 C251.16342259 2.67935085 250.25440852 2.71542945 247.06469727 3.21557617 C231.38624119 6.16654994 216.44210521 14.5493038 207.01782227 27.67651367 C197.53581018 41.61784061 194.19864863 54.53667282 194.22372437 71.2926178 C194.21871495 72.69869587 194.21283727 74.10477107 194.20617163 75.51084226 C194.1904357 79.35565657 194.1869445 83.20039767 194.18552303 87.04524028 C194.18181775 91.19851613 194.16665667 95.35175234 194.15290833 99.50500488 C194.13066705 106.69452051 194.11563495 113.88402198 194.10554123 121.07356453 C194.09093704 131.46834813 194.06539533 141.86308239 194.03720994 152.25783699 C193.99177356 169.12386392 193.95514572 185.98989797 193.92407227 202.85595703 C193.8938738 219.23682911 193.85951757 235.6176838 193.81958008 251.99853516 C193.81711853 253.00876215 193.81465698 254.01898914 193.81212084 255.05982906 C193.79974599 260.12799368 193.7872895 265.19615809 193.77479243 270.2643224 C193.67127186 312.28971975 193.58367852 354.31512918 193.50219727 396.34057617 C155.55219727 396.34057617 117.60219727 396.34057617 78.50219727 396.34057617 C78.56407227 415.10932617 78.62594727 433.87807617 78.68969727 453.21557617 C78.69638428 459.12834473 78.70307129 465.04111328 78.70996094 471.13305664 C78.73986044 476.46182877 78.73986044 476.46182877 78.77632141 481.79055786 C78.78934711 484.15258579 78.79267122 486.51467996 78.78816223 488.8767395 C78.78323104 492.46791786 78.80968372 496.05767813 78.84277344 499.64868164 C78.83415126 500.69006224 78.82552908 501.73144283 78.81664562 502.80438042 C78.9390793 510.64974065 80.85681348 517.35877705 86.25743389 523.25779533 C98.28151998 534.54338677 112.99891976 530.80821238 129.50219727 531.34057617 C129.50219727 499.33057617 129.50219727 467.32057617 129.50219727 434.34057617 C150.62219727 434.34057617 171.74219727 434.34057617 193.50219727 434.34057617 C193.52407104 442.24365723 193.52407104 442.24365723 193.54638672 450.30639648 C193.59674997 467.72481713 193.66319902 485.14314907 193.73791218 502.56148148 C193.78281357 513.12097422 193.82224124 523.68043366 193.84863281 534.23999023 C193.87165874 543.44729484 193.90510797 552.65449357 193.95089883 561.86171412 C193.97476914 566.7336029 193.99353842 571.60538721 193.99981117 576.47733307 C194.00589012 581.07055411 194.02599071 585.66350807 194.05647278 590.25662994 C194.06520818 591.93508037 194.068985 593.61356575 194.06720543 595.29203796 C194.05811888 607.82598467 195.30087504 619.19493572 201.18969727 630.46557617 C201.5385498 631.14297852 201.88740234 631.82038086 202.24682617 632.51831055 C210.23236917 647.56426404 222.95544011 658.38994116 239.06469727 664.09057617 C243.79740884 665.5395404 248.63315022 666.47654903 253.50219727 667.34057617 C253.50219727 667.67057617 253.50219727 668.00057617 253.50219727 668.34057617 C217.95979832 668.40932993 182.41741108 668.46214938 146.87495926 668.49377216 C142.67331257 668.49752402 138.47166602 668.50140701 134.27001953 668.50537109 C133.43359144 668.50615803 132.59716334 668.50694496 131.73538894 668.50775573 C118.21429539 668.52078899 104.69324032 668.54443131 91.17216956 668.57203456 C77.28537714 668.60014677 63.3986048 668.6167647 49.51178509 668.62284166 C40.95151774 668.62694607 32.39135922 668.6398821 23.83112539 668.66432557 C17.95107385 668.68025465 12.07107811 668.68496041 6.19100659 668.6810803 C2.80481125 668.67916981 -0.58104296 668.68364807 -3.96722984 668.6981926 C-37.59892849 668.83550618 -37.59892849 668.83550618 -50.74780273 661.71557617 C-51.4090918 661.36930176 -52.07038086 661.02302734 -52.75170898 660.66625977 C-69.54515304 651.55622397 -80.65940686 637.03689785 -86.37280273 618.90307617 C-88.3269037 611.98951643 -88.64401272 605.12211065 -88.6292305 597.99126339 C-88.63230945 596.6026615 -88.63230945 596.6026615 -88.6354506 595.18600705 C-88.64111242 592.07890158 -88.63966436 588.97184055 -88.63824463 585.86473083 C-88.64082873 583.61652563 -88.64384202 581.36832088 -88.64724803 579.12011677 C-88.65531596 572.93769922 -88.65710749 566.75529328 -88.6578455 560.57287109 C-88.65950635 554.59119694 -88.66582465 548.60952813 -88.67192391 542.62785726 C-88.68797247 526.60458325 -88.69388589 510.58131021 -88.69867266 494.55802961 C-88.70100975 486.97569897 -88.70461252 479.39336909 -88.70836804 471.81103904 C-88.72120252 445.84814261 -88.7319218 419.8852466 -88.73537064 393.92234707 C-88.73559227 392.29300563 -88.73581405 390.66366418 -88.73603599 389.03432274 C-88.73625663 387.40108186 -88.73647711 385.76784098 -88.73669744 384.1346001 C-88.73713998 380.85812533 -88.7375871 377.58165055 -88.73803711 374.30517578 C-88.7381465 373.4928025 -88.73825589 372.68042922 -88.7383686 371.84343857 C-88.7419987 345.50607619 -88.75791752 319.16874134 -88.78122747 292.8313895 C-88.80583586 264.97596357 -88.81954394 237.12055338 -88.82073855 209.26511627 C-88.82091 206.2059654 -88.82112543 203.14681452 -88.82137299 200.08766365 C-88.82142875 199.33443291 -88.82148452 198.58120218 -88.82154198 197.80514626 C-88.82269154 185.69534707 -88.83370544 173.58557619 -88.84826004 161.47578655 C-88.8626423 149.29861338 -88.86585227 137.12147641 -88.85782006 124.94429707 C-88.85376269 118.35024273 -88.8548414 111.7562645 -88.86887741 105.16222 C-88.88161831 99.12131397 -88.88041693 93.08057438 -88.8682867 87.03966857 C-88.86633006 84.85861868 -88.86940658 82.67755699 -88.87813106 80.49652367 C-88.95528234 59.89927572 -86.58392976 42.09650838 -73.49780273 25.34057617 C-72.98733398 24.65350586 -72.47686523 23.96643555 -71.95092773 23.25854492 C-61.80438476 10.52513579 -45.86972277 2.95446981 -30.02599597 0.61710906 C-20.09437667 -0.46920797 -9.97401406 -0.04284091 0 0 Z M87.12719727 147.46557617 C86.33571289 148.1694043 85.54422852 148.87323242 84.72875977 149.59838867 C79.17044843 156.4438879 77.91472498 163.18541103 78.0480957 171.81738281 C78.0475116 172.82331482 78.04692749 173.82924683 78.04632568 174.86566162 C78.04909252 178.16104726 78.08011873 181.45550655 78.11157227 184.75073242 C78.11903962 187.04714972 78.12473021 189.34357342 78.12872314 191.63999939 C78.1439404 197.66199571 78.18318883 203.6836015 78.22753906 209.70544434 C78.27580065 216.94253215 78.29404435 224.1797511 78.31735229 231.41695404 C78.3560418 242.39176573 78.43272395 253.36572181 78.50219727 264.34057617 C95.33219727 264.34057617 112.16219727 264.34057617 129.50219727 264.34057617 C129.50219727 223.42057617 129.50219727 182.50057617 129.50219727 140.34057617 C106.89331508 138.58068347 106.89331508 138.58068347 87.12719727 147.46557617 Z " fill="#E51B25" transform="translate(254.497802734375,165.659423828125)"/>
<path d="M0 0 C0 130.68 0 261.36 0 396 C-34.65 396 -69.3 396 -105 396 C-105.06616113 353.01766086 -105.12154412 310.03536983 -105.15319599 267.05299433 C-105.15694802 261.97624743 -105.16083099 256.89950064 -105.16479492 251.82275391 C-105.16558185 250.81208322 -105.16636878 249.80141254 -105.16717956 248.76011547 C-105.18022642 232.40466023 -105.2038763 216.04923669 -105.23145839 199.69380024 C-105.25953262 182.90628005 -105.27618053 166.11877644 -105.28226548 149.33123374 C-105.28637773 138.97599781 -105.29935675 128.62085149 -105.3237494 118.26564315 C-105.33963149 111.16057129 -105.34439476 104.05554562 -105.34050413 96.9504573 C-105.33858644 92.85382022 -105.34148509 88.7573395 -105.35761642 84.66073036 C-105.37230207 80.90366126 -105.37289674 77.14685248 -105.36269668 73.38977095 C-105.36084506 71.40038521 -105.37370588 69.41100216 -105.38724393 67.42166162 C-105.29210577 48.23261042 -98.16694426 32.68633702 -84.984375 18.890625 C-61.23027528 -3.80773695 -32.13157905 0 0 0 Z " fill="#7579B8" transform="translate(553,166)"/>
<path d="M0 0 C34.65 0 69.3 0 105 0 C105 77.22 105 154.44 105 234 C40.26686341 234 40.26686341 234 18.28125 213.37109375 C3.48463475 197.99173509 -0.48248237 179.05101354 -0.34057617 158.48144531 C-0.33972831 156.74570734 -0.34020815 155.0099683 -0.34190369 153.27423096 C-0.34275885 148.59730867 -0.32521129 143.92062067 -0.30418181 139.24375248 C-0.28533455 134.34307631 -0.28365826 129.44239383 -0.28010559 124.54168701 C-0.27080866 115.27721822 -0.24622693 106.01285656 -0.21605712 96.74843478 C-0.17614467 84.21832863 -0.16003922 71.68819285 -0.14255047 59.15803909 C-0.11440398 39.4386126 -0.05461881 19.7194121 0 0 Z " fill="#7579B8" transform="translate(448,600)"/>
</svg>
